<?xml version="1.0" encoding="utf-8"?>
<svg version="1.1" id="Calque_1" xmlns="http://www.w3.org/2000/svg" xmlns:xlink="http://www.w3.org/1999/xlink" x="0px" y="0px"
     viewBox="0 0 566.9 566.9" style="enable-background:new 0 0 566.9 566.9;" xml:space="preserve">
<style type="text/css">
    .st1{fill:#E1E47D;} 
</style>
<g>
    <path class="st1" d="M201.5,109.2c17.1-0.1,34.1,3.2,49.9,9.8c15.8,6.6,30.1,16.4,42,28.7c25.7,25.7,38.5,56.3,38.5,92v217.8h-96.6
        V239.6c-0.2-8.9-3.8-17.4-10.1-23.7c-6.3-6.3-14.8-9.9-23.7-10.1h-33.8v-92.5C178.7,110.6,190.1,109.2,201.5,109.2z"/>
    <path class="st1" d="M167.7,205.8H71.1v251.7h96.6V205.8z"/>
    <path class="st1" d="M365.8,109.2c17.1-0.1,34.1,3.2,49.9,9.8c15.8,6.6,30.1,16.4,42,28.7c25.7,25.7,38.5,56.3,38.5,92v217.8h-96.6
        V239.6c-0.2-8.9-3.8-17.4-10.1-23.7c-6.3-6.3-14.8-9.9-23.7-10.1h-33.8v-92.5C343,110.6,354.4,109.2,365.8,109.2z"/>
</g>
</svg>